<?xml version="1.0" encoding="UTF-8" standalone="no"?>
<!-- Created with Inkscape (http://www.inkscape.org/) -->

<svg
   width="49.200001mm"
   height="28.726999mm"
   viewBox="0 0 49.200001 28.726999"
   version="1.1"
   id="svg945"
   inkscape:version="1.2 (dc2aedaf03, 2022-05-15)"
   sodipodi:docname="logolab.svg"
   xmlns:inkscape="http://www.inkscape.org/namespaces/inkscape"
   xmlns:sodipodi="http://sodipodi.sourceforge.net/DTD/sodipodi-0.dtd"
   xmlns="http://www.w3.org/2000/svg"
   xmlns:svg="http://www.w3.org/2000/svg">
  <sodipodi:namedview
     id="namedview947"
     pagecolor="#ffffff"
     bordercolor="#000000"
     borderopacity="0.25"
     inkscape:showpageshadow="2"
     inkscape:pageopacity="0.0"
     inkscape:pagecheckerboard="0"
     inkscape:deskcolor="#d1d1d1"
     inkscape:document-units="mm"
     showgrid="false"
     inkscape:zoom="7.319248"
     inkscape:cx="117.22516"
     inkscape:cy="31.014115"
     inkscape:window-width="3840"
     inkscape:window-height="2054"
     inkscape:window-x="-11"
     inkscape:window-y="-11"
     inkscape:window-maximized="1"
     inkscape:current-layer="layer1" />
  <defs
     id="defs942" />
  <g
     inkscape:label="Calque 1"
     inkscape:groupmode="layer"
     id="layer1"
     transform="translate(-13.155121,-69.168973)">
    <path
       id="polygon584"
       style="stroke:none"
       class="st2"
       transform="matrix(0.10627338,0,0,0.10627338,-6.1998912,52.729511)"
       d="M 186.5,160.6 H 316.1 L 186.5,290.2 Z" />
    <path
       id="polygon586"
       style="stroke:none"
       class="st2"
       transform="matrix(0.10627338,0,0,0.10627338,-6.1998912,52.729511)"
       d="M 445.7,290.2 H 316.1 V 160.6 l 64.8,64.8 64.8,-64.8 z" />
    <path
       id="polygon588"
       style="stroke:none"
       class="st2"
       transform="matrix(0.10627338,0,0,0.10627338,-6.1998912,52.729511)"
       d="m 510.5,225.4 h -64.8 l 64.8,-64.8 H 640 L 510.5,290.2 Z" />
    <path
       id="polygon921"
       style="stroke:none"
       class="st2"
       transform="matrix(0.10627338,0,0,-0.10627338,-6.1998912,114.41058)"
       d="M 316.1,160.6 186.5,290.2 V 160.6 Z" />
    <path
       id="polygon923"
       style="stroke:none"
       class="st2"
       transform="matrix(0,0.10627338,-0.10627338,0,72.006689,49.97703)"
       d="m 380.9,225.4 64.8,-64.8 V 290.2 H 316.1 V 160.6 Z" />
    <path
       id="polygon925"
       class="st2"
       style="fill:#000000;stroke:none;stroke-width:0.106273"
       d="m 34.279634,90.45656 6.88652,6.886515 h -13.77303 z"
       sodipodi:nodetypes="cccc" />
  </g>
</svg>
